<svg width="24" height="24" viewBox="0 0 24 24" fill="none" xmlns="http://www.w3.org/2000/svg">
<path d="M6.11868 3.13298C6.89149 2.89521 7.72817 2.97919 8.43801 3.36637L19.1372 9.20231C20.5915 9.99574 21.1277 11.8182 20.3345 13.2726C20.0587 13.7783 19.6428 14.1941 19.1372 14.4699L8.43801 20.3058C6.98351 21.0992 5.16113 20.563 4.3677 19.1086C3.98056 18.3988 3.89566 17.5629 4.13332 16.7902L5.65774 11.8361L4.13332 6.882C3.64632 5.29857 4.53529 3.62026 6.11868 3.13298ZM7.48 5.12223C7.24341 4.99319 6.96415 4.96488 6.70657 5.04411C6.21657 5.19503 5.92607 5.68858 6.01711 6.18083L6.04543 6.29411L7.49465 11.0031H12.7505C13.3026 11.0033 13.7505 11.451 13.7505 12.0031C13.7505 12.5159 13.364 12.9385 12.8667 12.9963L12.7505 13.0031H7.39114L6.04543 17.3781C5.96617 17.6357 5.99449 17.9149 6.12356 18.1515C6.3693 18.6013 6.9105 18.7871 7.37453 18.5998L7.48 18.55L18.1792 12.714C18.3477 12.6221 18.4867 12.4832 18.5786 12.3146C18.8239 11.8646 18.6875 11.3085 18.2788 11.0197L18.1792 10.9582L7.48 5.12223Z" fill="white"/>
</svg>
