<svg width="20" height="21" viewBox="0 0 20 21" fill="none" xmlns="http://www.w3.org/2000/svg">
<mask id="mask0_421_10666" style="mask-type:luminance" maskUnits="userSpaceOnUse" x="0" y="0" width="20" height="21">
<path d="M20 0.5H0V20.5H20V0.5Z" fill="white"/>
</mask>
<g mask="url(#mask0_421_10666)">
<g filter="url(#filter0_iiii_421_10666)">
<path d="M10.0796 19.7001C15.2382 19.7001 19.4201 15.5811 19.4201 10.5C19.4201 5.41903 15.2382 1.30005 10.0796 1.30005C4.92092 1.30005 0.739014 5.41903 0.739014 10.5C0.739014 15.5811 4.92092 19.7001 10.0796 19.7001Z" fill="#0EA229"/>
</g>
<g filter="url(#filter1_diiiiii_421_10666)">
<path d="M10.099 16.646C13.5345 16.646 16.3195 13.9029 16.3195 10.519C16.3195 7.13522 13.5345 4.39209 10.099 4.39209C6.66345 4.39209 3.87842 7.13522 3.87842 10.519C3.87842 13.9029 6.66345 16.646 10.099 16.646Z" fill="#0B680B"/>
<path d="M10.0989 4.64209C13.4 4.64209 16.0695 7.27682 16.0695 10.519C16.0695 13.7612 13.4 16.396 10.0989 16.396C6.79795 16.396 4.12842 13.7612 4.12842 10.519C4.12843 7.27687 6.79795 4.64209 10.0989 4.64209Z" stroke="white" stroke-width="10"/>
</g>
<path d="M16.8235 12.4279C15.2732 17.8944 10.4156 17.8868 8.18056 17.1997C7.59146 18.3602 6.22976 18.4085 5.62256 18.2876C15.0639 22.0592 18.5223 15.2782 19.0714 11.4163C18.6218 12.7295 17.3855 12.6378 16.8235 12.4279Z" fill="url(#paint0_linear_421_10666)"/>
<path d="M16.8235 12.4279C15.2732 17.8944 10.4156 17.8868 8.18056 17.1997C7.59146 18.3602 6.22976 18.4085 5.62256 18.2876C15.0639 22.0592 18.5223 15.2782 19.0714 11.4163C18.6218 12.7295 17.3855 12.6378 16.8235 12.4279Z" fill="url(#paint1_linear_421_10666)" fill-opacity="0.5"/>
<path d="M16.6684 5.40368C15.8467 3.96832 15.1374 4.64019 14.8855 5.15554C14.574 5.57545 15.9126 6.81615 16.6684 7.38875C17.4241 7.96135 16.6684 10.3663 17.0172 11.0344C17.366 11.7024 18.0636 10.6526 18.1799 9.43105C18.2962 8.2095 17.6954 7.19785 16.6684 5.40368Z" fill="url(#paint2_radial_421_10666)" fill-opacity="0.75"/>
<path d="M3.54803 11.2516C2.16617 11.2456 1.42896 9.45738 1.35247 9.24023C1.07098 13.1416 2.45238 15.453 3.17827 16.1211C2.96566 14.9807 4.11881 13.9843 4.17941 13.7404C4.24001 13.4966 3.85239 11.3758 3.54803 11.2516Z" fill="url(#paint3_linear_421_10666)"/>
<path d="M12.6457 8.8442C11.7202 7.85535 13.0313 6.86385 13.8025 6.4917C15.2435 6.4917 15.7712 9.8211 15.9335 10.2796C16.0959 10.7381 15.7306 11.097 14.7158 10.2796C13.701 9.46225 13.8025 10.0802 12.6457 8.8442Z" fill="url(#paint4_linear_421_10666)"/>
<path d="M2.77377 5.78545C4.30469 2.88423 6.9983 2.46431 7.17275 2.36887C7.87035 2.15134 8.6649 3.28506 8.04475 3.91493C7.42465 4.54481 6.86265 4.23941 6.26195 4.16306C5.6612 4.08672 4.88605 4.94564 4.7504 5.53735C4.61475 6.12905 2.19241 8.07595 2.77377 5.78545Z" fill="url(#paint5_linear_421_10666)"/>
<path d="M18.2594 10.988C18.1538 10.7507 17.8943 10.9296 17.7777 11.0488C17.5495 11.2069 17.7241 12.3394 17.4071 13.1396C17.0901 13.9397 16.0382 15.0721 16.8012 14.6688C18.0156 12.7588 18.3915 11.2847 18.2594 10.988Z" fill="url(#paint6_linear_421_10666)"/>
<path d="M7.78553 9.66239C6.11623 9.38214 5.64158 8.38609 5.61288 7.92309C4.8034 7.83954 4.56008 10.8597 4.79335 11.9638C5.02663 13.068 5.70153 13.3176 5.89833 12.9329C6.09513 12.5482 7.90258 11.3096 8.02923 11.2177C8.15593 11.1257 8.24208 9.94954 7.78553 9.66239Z" fill="url(#paint7_linear_421_10666)" fill-opacity="0.75"/>
<path d="M12.1336 9.22111C11.808 9.11426 11.5716 9.31656 11.4941 9.43111C11.8352 9.85866 11.9204 10.2328 11.9204 10.3664C12.1995 10.4427 12.476 10.2837 12.5793 10.1946C12.4863 9.79756 12.2434 9.38021 12.1336 9.22111Z" fill="url(#paint8_linear_421_10666)"/>
<path d="M7.84794 11.3781C8.33274 11.2408 8.82664 11.1494 9.32969 11.1036C9.83274 11.0579 10.3358 11.0579 10.8297 11.1036C11.3327 11.1494 11.8266 11.2408 12.3114 11.3781C12.7961 11.5153 13.2717 11.6981 13.729 11.936V8.34145C13.5004 8.9451 13.2626 9.56705 13.0339 10.1981C12.7961 9.38415 12.5583 8.57925 12.3114 7.78355C12.0644 8.44205 11.8266 9.1006 11.5797 9.77745C11.3327 9.00915 11.0858 8.25 10.8297 7.5C10.5827 8.20425 10.3358 8.9177 10.0797 9.64025C9.83274 8.9177 9.57664 8.20425 9.32969 7.5C9.08274 8.25 8.83579 9.00915 8.57969 9.77745C8.33274 9.1006 8.08579 8.43295 7.84794 7.78355C7.61014 8.5701 7.36319 9.38415 7.12539 10.1981C6.88759 9.56705 6.65894 8.9451 6.42114 8.34145V8.3506V11.936C6.88759 11.6981 7.36319 11.5153 7.84794 11.3781Z" fill="white"/>
<path d="M13.7658 12.0916C13.3085 11.8629 12.8237 11.6709 12.3298 11.5337C11.8451 11.3965 11.342 11.2959 10.839 11.2501C10.3359 11.2044 9.82373 11.2044 9.32068 11.2501C8.81763 11.2959 8.31458 11.3873 7.82983 11.5337C7.33593 11.6709 6.85118 11.8629 6.39383 12.0916C6.35728 12.1099 6.33898 12.1556 6.35728 12.1922C6.36638 12.2196 6.39383 12.2379 6.42128 12.2379C6.43043 12.2379 6.43958 12.2379 6.45788 12.2288C6.90603 12.0001 7.38163 11.8172 7.86638 11.68C8.34203 11.5428 8.83593 11.4513 9.32983 11.4056C9.82373 11.3599 10.3268 11.3599 10.8207 11.4056C11.3146 11.4513 11.8085 11.5428 12.2841 11.68C12.7688 11.8172 13.2444 12.0001 13.6926 12.2288C13.7292 12.2471 13.7749 12.2288 13.7932 12.1922C13.8207 12.1556 13.8024 12.1099 13.7658 12.0916Z" fill="white"/>
<path d="M13.656 12.3202C13.2079 12.1007 12.7414 11.9087 12.2658 11.7806C11.7902 11.6434 11.3054 11.552 10.8115 11.5062C10.3268 11.4605 9.8329 11.4605 9.339 11.5062C8.8451 11.552 8.3603 11.6434 7.8847 11.7806C7.4091 11.9178 6.94265 12.1007 6.49445 12.3202C6.3847 12.3751 6.339 12.5123 6.39385 12.6221C6.43045 12.7044 6.51275 12.7501 6.5951 12.7501C6.63165 12.7501 6.6591 12.741 6.6957 12.7227C6.6957 12.7227 6.6957 12.7227 6.70485 12.7227C7.12555 12.5123 7.5646 12.3385 8.01275 12.2105C8.46095 12.0824 8.91825 12.0001 9.3847 11.9544C9.84205 11.9087 10.3085 11.9087 10.7749 11.9544C11.2414 12.0001 11.6987 12.0824 12.1469 12.2105C12.5951 12.3385 13.0432 12.5123 13.4548 12.7227C13.5646 12.7776 13.7018 12.7318 13.7566 12.6221C13.8115 12.5123 13.7658 12.3751 13.656 12.3202Z" fill="white"/>
</g>
<defs>
<filter id="filter0_iiii_421_10666" x="-47.261" y="-25.7" width="66.6812" height="45.3999" filterUnits="userSpaceOnUse" color-interpolation-filters="sRGB">
<feFlood flood-opacity="0" result="BackgroundImageFix"/>
<feBlend mode="normal" in="SourceGraphic" in2="BackgroundImageFix" result="shape"/>
<feColorMatrix in="SourceAlpha" type="matrix" values="0 0 0 0 0 0 0 0 0 0 0 0 0 0 0 0 0 0 127 0" result="hardAlpha"/>
<feOffset dx="-19" dy="-20"/>
<feGaussianBlur stdDeviation="26.5"/>
<feComposite in2="hardAlpha" operator="arithmetic" k2="-1" k3="1"/>
<feColorMatrix type="matrix" values="0 0 0 0 0.00998521 0 0 0 0 0.259615 0 0 0 0 0.0765532 0 0 0 1 0"/>
<feBlend mode="normal" in2="shape" result="effect1_innerShadow_421_10666"/>
<feColorMatrix in="SourceAlpha" type="matrix" values="0 0 0 0 0 0 0 0 0 0 0 0 0 0 0 0 0 0 127 0" result="hardAlpha"/>
<feOffset dx="33" dy="18"/>
<feGaussianBlur stdDeviation="5.5"/>
<feComposite in2="hardAlpha" operator="arithmetic" k2="-1" k3="1"/>
<feColorMatrix type="matrix" values="0 0 0 0 0.0443372 0 0 0 0 0.442308 0 0 0 0 0.0233913 0 0 0 1 0"/>
<feBlend mode="normal" in2="effect1_innerShadow_421_10666" result="effect2_innerShadow_421_10666"/>
<feColorMatrix in="SourceAlpha" type="matrix" values="0 0 0 0 0 0 0 0 0 0 0 0 0 0 0 0 0 0 127 0" result="hardAlpha"/>
<feOffset dx="-66" dy="-27"/>
<feGaussianBlur stdDeviation="24"/>
<feComposite in2="hardAlpha" operator="arithmetic" k2="-1" k3="1"/>
<feColorMatrix type="matrix" values="0 0 0 0 0.177778 0 0 0 0 0.796078 0 0 0 0 0.121569 0 0 0 0.5 0"/>
<feBlend mode="normal" in2="effect2_innerShadow_421_10666" result="effect3_innerShadow_421_10666"/>
<feColorMatrix in="SourceAlpha" type="matrix" values="0 0 0 0 0 0 0 0 0 0 0 0 0 0 0 0 0 0 127 0" result="hardAlpha"/>
<feOffset dx="-18" dy="-12"/>
<feGaussianBlur stdDeviation="5.5"/>
<feComposite in2="hardAlpha" operator="arithmetic" k2="-1" k3="1"/>
<feColorMatrix type="matrix" values="0 0 0 0 0.0624075 0 0 0 0 0.432692 0 0 0 0 0.105607 0 0 0 1 0"/>
<feBlend mode="normal" in2="effect3_innerShadow_421_10666" result="effect4_innerShadow_421_10666"/>
</filter>
<filter id="filter1_diiiiii_421_10666" x="-17.8716" y="-16.3579" width="95.9412" height="60.7539" filterUnits="userSpaceOnUse" color-interpolation-filters="sRGB">
<feFlood flood-opacity="0" result="BackgroundImageFix"/>
<feColorMatrix in="SourceAlpha" type="matrix" values="0 0 0 0 0 0 0 0 0 0 0 0 0 0 0 0 0 0 127 0" result="hardAlpha"/>
<feOffset dx="14" dy="10"/>
<feGaussianBlur stdDeviation="6.5"/>
<feComposite in2="hardAlpha" operator="out"/>
<feColorMatrix type="matrix" values="0 0 0 0 1 0 0 0 0 1 0 0 0 0 1 0 0 0 0.25 0"/>
<feBlend mode="normal" in2="BackgroundImageFix" result="effect1_dropShadow_421_10666"/>
<feBlend mode="normal" in="SourceGraphic" in2="effect1_dropShadow_421_10666" result="shape"/>
<feColorMatrix in="SourceAlpha" type="matrix" values="0 0 0 0 0 0 0 0 0 0 0 0 0 0 0 0 0 0 127 0" result="hardAlpha"/>
<feOffset dx="-9" dy="-2"/>
<feGaussianBlur stdDeviation="10.5"/>
<feComposite in2="hardAlpha" operator="arithmetic" k2="-1" k3="1"/>
<feColorMatrix type="matrix" values="0 0 0 0 0.0200629 0 0 0 0 0.298077 0 0 0 0 0.0524978 0 0 0 1 0"/>
<feBlend mode="normal" in2="shape" result="effect2_innerShadow_421_10666"/>
<feColorMatrix in="SourceAlpha" type="matrix" values="0 0 0 0 0 0 0 0 0 0 0 0 0 0 0 0 0 0 127 0" result="hardAlpha"/>
<feOffset dx="57" dy="4"/>
<feGaussianBlur stdDeviation="33"/>
<feComposite in2="hardAlpha" operator="arithmetic" k2="-1" k3="1"/>
<feColorMatrix type="matrix" values="0 0 0 0 0.0412583 0 0 0 0 0.504808 0 0 0 0 0.195775 0 0 0 1 0"/>
<feBlend mode="normal" in2="effect2_innerShadow_421_10666" result="effect3_innerShadow_421_10666"/>
<feColorMatrix in="SourceAlpha" type="matrix" values="0 0 0 0 0 0 0 0 0 0 0 0 0 0 0 0 0 0 127 0" result="hardAlpha"/>
<feOffset dx="17" dy="7"/>
<feGaussianBlur stdDeviation="2"/>
<feComposite in2="hardAlpha" operator="arithmetic" k2="-1" k3="1"/>
<feColorMatrix type="matrix" values="0 0 0 0 0.0467456 0 0 0 0 0.379808 0 0 0 0 0.029216 0 0 0 0.75 0"/>
<feBlend mode="normal" in2="effect3_innerShadow_421_10666" result="effect4_innerShadow_421_10666"/>
<feColorMatrix in="SourceAlpha" type="matrix" values="0 0 0 0 0 0 0 0 0 0 0 0 0 0 0 0 0 0 127 0" result="hardAlpha"/>
<feOffset dx="12" dy="14"/>
<feGaussianBlur stdDeviation="2"/>
<feComposite in2="hardAlpha" operator="arithmetic" k2="-1" k3="1"/>
<feColorMatrix type="matrix" values="0 0 0 0 0 0 0 0 0 0 0 0 0 0 0 0 0 0 0.1 0"/>
<feBlend mode="normal" in2="effect4_innerShadow_421_10666" result="effect5_innerShadow_421_10666"/>
<feColorMatrix in="SourceAlpha" type="matrix" values="0 0 0 0 0 0 0 0 0 0 0 0 0 0 0 0 0 0 127 0" result="hardAlpha"/>
<feOffset dx="-24" dy="-16"/>
<feGaussianBlur stdDeviation="8.5"/>
<feComposite in2="hardAlpha" operator="arithmetic" k2="-1" k3="1"/>
<feColorMatrix type="matrix" values="0 0 0 0 1 0 0 0 0 1 0 0 0 0 1 0 0 0 0.25 0"/>
<feBlend mode="normal" in2="effect5_innerShadow_421_10666" result="effect6_innerShadow_421_10666"/>
<feColorMatrix in="SourceAlpha" type="matrix" values="0 0 0 0 0 0 0 0 0 0 0 0 0 0 0 0 0 0 127 0" result="hardAlpha"/>
<feOffset dx="-15" dy="-7"/>
<feGaussianBlur stdDeviation="2"/>
<feComposite in2="hardAlpha" operator="arithmetic" k2="-1" k3="1"/>
<feColorMatrix type="matrix" values="0 0 0 0 1 0 0 0 0 1 0 0 0 0 1 0 0 0 0.25 0"/>
<feBlend mode="normal" in2="effect6_innerShadow_421_10666" result="effect7_innerShadow_421_10666"/>
</filter>
<linearGradient id="paint0_linear_421_10666" x1="14.0717" y1="19.3756" x2="12.3879" y2="16.0718" gradientUnits="userSpaceOnUse">
<stop stop-color="#29FA56"/>
<stop offset="1" stop-color="#0B8246" stop-opacity="0"/>
</linearGradient>
<linearGradient id="paint1_linear_421_10666" x1="14.498" y1="18.5358" x2="13.7591" y2="17.2662" gradientUnits="userSpaceOnUse">
<stop stop-color="#1FCB25"/>
<stop offset="1" stop-color="white" stop-opacity="0"/>
</linearGradient>
<radialGradient id="paint2_radial_421_10666" cx="0" cy="0" r="1" gradientUnits="userSpaceOnUse" gradientTransform="translate(16.8621 7.2742) rotate(69.1568) scale(2.94101 1.4665)">
<stop stop-color="white"/>
<stop offset="1" stop-color="white" stop-opacity="0"/>
</radialGradient>
<linearGradient id="paint3_linear_421_10666" x1="2.98546" y1="16.5795" x2="2.49897" y2="6.49888" gradientUnits="userSpaceOnUse">
<stop stop-color="#057B25"/>
<stop offset="1" stop-color="white" stop-opacity="0"/>
</linearGradient>
<linearGradient id="paint4_linear_421_10666" x1="18.6448" y1="7.1025" x2="13.3658" y2="8.4267" gradientUnits="userSpaceOnUse">
<stop stop-color="#227409"/>
<stop offset="1" stop-color="white" stop-opacity="0"/>
</linearGradient>
<linearGradient id="paint5_linear_421_10666" x1="3.21948" y1="2.3307" x2="5.9779" y2="5.80725" gradientUnits="userSpaceOnUse">
<stop stop-color="white"/>
<stop offset="1" stop-color="white" stop-opacity="0"/>
</linearGradient>
<linearGradient id="paint6_linear_421_10666" x1="18.3066" y1="12.7067" x2="16.9679" y2="11.5922" gradientUnits="userSpaceOnUse">
<stop stop-color="#50FC2E"/>
<stop offset="1" stop-color="#0C660F" stop-opacity="0"/>
</linearGradient>
<linearGradient id="paint7_linear_421_10666" x1="3.55148" y1="9.90054" x2="7.90633" y2="10.7002" gradientUnits="userSpaceOnUse">
<stop stop-color="#31F288"/>
<stop offset="1" stop-color="#8BF231" stop-opacity="0"/>
</linearGradient>
<linearGradient id="paint8_linear_421_10666" x1="11.4747" y1="9.41201" x2="12.3782" y2="9.95851" gradientUnits="userSpaceOnUse">
<stop stop-color="#26E515"/>
<stop offset="1" stop-color="#1C740A" stop-opacity="0"/>
</linearGradient>
</defs>
</svg>
