<svg width="27" height="24" viewBox="0 0 27 24" fill="none" xmlns="http://www.w3.org/2000/svg">
<path d="M9.76102 13C11.4178 13.0001 12.761 14.3432 12.761 16V18C12.761 19.6568 11.4178 20.9999 9.76102 21H7.07059C5.41373 21 4.07059 19.6569 4.07059 18V16C4.07059 14.3431 5.41373 13 7.07059 13H9.76102ZM20.6233 13C22.2802 13 23.6233 14.3431 23.6233 16V18C23.6233 19.6569 22.2802 21 20.6233 21H17.9329C16.2762 20.9998 14.9329 19.6567 14.9329 18V16C14.9329 14.3433 16.2762 13.0002 17.9329 13H20.6233ZM9.76102 3C11.4178 3.00013 12.761 4.34322 12.761 6V8C12.761 9.65678 11.4178 10.9999 9.76102 11H7.07059C5.41373 11 4.07059 9.65685 4.07059 8V6C4.07059 4.34315 5.41373 3 7.07059 3H9.76102ZM20.6233 3C22.2802 3 23.6233 4.34315 23.6233 6V8C23.6233 9.65685 22.2802 11 20.6233 11H17.9329C16.2762 10.9998 14.9329 9.65671 14.9329 8V6C14.9329 4.34329 16.2762 3.00024 17.9329 3H20.6233Z" fill="white"/>
</svg>
