<svg width="19" height="20" viewBox="0 0 19 20" fill="none" xmlns="http://www.w3.org/2000/svg">
<path fill-rule="evenodd" clip-rule="evenodd" d="M12.791 10.75H0.75C0.336 10.75 0 10.414 0 10C0 9.586 0.336 9.25 0.75 9.25H12.791C13.205 9.25 13.541 9.586 13.541 10C13.541 10.414 13.205 10.75 12.791 10.75Z" fill="white"/>
<path fill-rule="evenodd" clip-rule="evenodd" d="M9.86328 13.665C9.67128 13.665 9.47828 13.592 9.33228 13.444C9.03928 13.15 9.04128 12.676 9.33428 12.384L11.7283 10L9.33428 7.615C9.04128 7.323 9.03928 6.849 9.33228 6.555C9.62528 6.261 10.0993 6.261 10.3923 6.553L13.3213 9.469C13.4633 9.609 13.5423 9.801 13.5423 10C13.5423 10.199 13.4633 10.391 13.3213 10.531L10.3923 13.446C10.2463 13.592 10.0543 13.665 9.86328 13.665Z" fill="white"/>
<path fill-rule="evenodd" clip-rule="evenodd" d="M14.042 20H9.15697C6.71797 20 4.73297 18.015 4.73297 15.575V14.633C4.73297 14.219 5.06897 13.883 5.48297 13.883C5.89697 13.883 6.23297 14.219 6.23297 14.633V15.575C6.23297 17.187 7.54497 18.5 9.15697 18.5H14.042C15.661 18.5 16.978 17.184 16.978 15.564V4.425C16.978 2.813 15.665 1.5 14.053 1.5H9.16797C7.54997 1.5 6.23297 2.816 6.23297 4.434V5.367C6.23297 5.781 5.89697 6.117 5.48297 6.117C5.06897 6.117 4.73297 5.781 4.73297 5.367V4.434C4.73297 1.989 6.72297 0 9.16797 0H14.053C16.492 0 18.478 1.985 18.478 4.425V15.564C18.478 18.01 16.487 20 14.042 20Z" fill="white"/>
</svg>
