<svg width="27" height="24" viewBox="0 0 27 24" fill="none" xmlns="http://www.w3.org/2000/svg">
<path d="M14.2548 2.9636C15.653 1.67814 17.9189 1.67848 19.3163 2.96458C20.505 4.05885 20.6827 5.73188 19.8495 6.99973H21.4511C23.2508 6.9998 24.7097 8.34304 24.7099 9.99973V10.9997C24.7099 12.3056 23.8022 13.4128 22.537 13.8249V18.9997C22.537 20.5974 21.1803 21.9036 19.4697 21.9949L19.2783 21.9997H8.41595C6.68051 21.9997 5.26127 20.7512 5.16205 19.1765L5.15717 18.9997V13.8249C3.89197 13.4128 2.98431 12.3056 2.98431 10.9997V9.99973C2.98447 8.34301 4.44342 6.99975 6.2431 6.99973H7.84467C7.01167 5.73224 7.18923 4.05994 8.37787 2.96555C9.77531 1.6791 12.0407 1.6785 13.4394 2.96458C13.5893 3.10261 13.7251 3.2577 13.8476 3.42942C13.9702 3.25792 14.1048 3.10167 14.2548 2.9636ZM7.32904 18.9997C7.32904 19.5126 7.74878 19.9351 8.289 19.9929L8.41595 19.9997H12.7607V13.9997H7.32904V18.9997ZM14.9335 19.9997H19.2783C19.8352 19.9997 20.2945 19.6141 20.3574 19.1169L20.3652 18.9997V13.9997H14.9335V19.9997ZM6.2431 8.99973C5.64328 8.99975 5.15732 9.44758 5.15717 9.99973V10.9997C5.15717 11.552 5.64319 11.9997 6.2431 11.9997H12.7607V8.99973H6.2431ZM14.9335 11.9997H21.4511C22.051 11.9997 22.537 11.552 22.537 10.9997V9.99973C22.5369 9.44761 22.0509 8.9998 21.4511 8.99973H14.9335V11.9997ZM11.9042 4.37864C11.3545 3.87326 10.4634 3.8739 9.914 4.37962C9.36482 4.88534 9.36456 5.70508 9.91302 6.21067C10.1468 6.42587 10.7262 6.63959 11.5204 6.78587C11.7723 6.83223 12.0363 6.8701 12.3056 6.9011L12.6953 6.94016L12.6533 6.58079L12.5966 6.2136L12.5283 5.85911C12.3694 5.12787 12.1376 4.59355 11.9042 4.37864ZM17.666 4.28489C17.1136 3.87603 16.3035 3.90749 15.791 4.37864C15.5142 4.63342 15.2541 5.3085 15.0976 6.20872C15.0656 6.39279 15.0394 6.57657 15.0175 6.75559L14.996 6.94016L15.3886 6.9011L15.787 6.84934L16.1728 6.78587C16.9673 6.63959 17.5468 6.4255 17.7802 6.21067C18.329 5.70474 18.3292 4.88534 17.7802 4.37962L17.666 4.28489Z" fill="#6B6E75"/>
</svg>
