<svg width="27" height="24" viewBox="0 0 27 24" fill="none" xmlns="http://www.w3.org/2000/svg">
<path d="M13.8469 0C15.6467 0 17.1057 1.34315 17.1057 3V3.08594C17.1068 3.34497 17.2749 3.57919 17.5442 3.68555C17.8083 3.79283 18.1169 3.74055 18.3147 3.5625L18.5364 3.36719C19.1288 2.88902 19.8921 2.62312 20.6848 2.62305C21.5497 2.62305 22.3791 2.94039 22.9895 3.50293C23.6014 4.06563 23.9456 4.82877 23.9456 5.625C23.9456 6.42119 23.6019 7.18477 22.9905 7.74707L22.9338 7.79883C22.732 7.98878 22.6757 8.27351 22.7922 8.5166C22.8125 8.55887 22.8293 8.60227 22.843 8.64648L22.8567 8.70605L22.9055 8.76758C23.0148 8.88757 23.1679 8.96818 23.3362 8.99219L23.4387 9H23.6233C25.4231 9 26.8821 10.3431 26.8821 12C26.8821 13.6569 25.4231 15 23.6233 15H23.5305C23.2492 15.001 22.9947 15.1555 22.8791 15.4033C22.7626 15.6464 22.8185 15.9312 23.012 16.1133L23.2239 16.3174C23.7434 16.8628 24.0324 17.5651 24.0325 18.2949C24.0325 19.0912 23.6885 19.8551 23.0774 20.417C22.4662 20.9802 21.6365 21.2969 20.7717 21.2969C19.9069 21.2968 19.0778 20.9798 18.467 20.417L18.4104 20.3652C18.2041 20.1794 17.8951 20.1277 17.6204 20.2393C17.3619 20.3414 17.1937 20.5751 17.1926 20.8301V21C17.1926 22.6569 15.7336 24 13.9338 24C12.1341 23.9999 10.675 22.6568 10.675 21V20.9336C10.6683 20.6668 10.4854 20.4303 10.1497 20.3145C9.88561 20.2072 9.57694 20.2595 9.37915 20.4375L9.15747 20.6328C8.56502 21.111 7.80179 21.3769 7.00903 21.377C6.14411 21.377 5.31474 21.0596 4.70434 20.4971C4.09249 19.9344 3.74829 19.1712 3.74829 18.375C3.74829 17.5789 4.09201 16.8152 4.70337 16.2529L4.76098 16.2012C4.9628 16.0112 5.01791 15.7266 4.89672 15.4736C4.78577 15.2357 4.53206 15.0811 4.25512 15.0801H4.07055C2.2708 15.0801 0.81181 13.7369 0.811764 12.0801C0.811764 10.4232 2.27077 9.0801 4.07055 9.08008H4.14282C4.43253 9.07384 4.68884 8.90548 4.81469 8.59668C4.93124 8.35358 4.87529 8.06883 4.68188 7.88672L4.46997 7.68262C3.95052 7.13721 3.66139 6.4349 3.66137 5.70508C3.66137 4.90885 4.00537 4.14493 4.61645 3.58301C5.22769 3.01976 6.05726 2.70312 6.92212 2.70312C7.78693 2.70314 8.61601 3.02019 9.2268 3.58301L9.28344 3.63477C9.48974 3.82053 9.79871 3.87283 10.0627 3.76562C10.1088 3.74691 10.1561 3.73039 10.2043 3.71777L10.2688 3.70508L10.3362 3.66113C10.4664 3.56055 10.5542 3.41954 10.5803 3.26465L10.5881 3.16992V3C10.5881 1.34319 12.0472 6.92704e-05 13.8469 0ZM13.8469 2C13.2471 2.00007 12.761 2.44776 12.761 3V3.17383C12.7564 4.23004 12.0704 5.18353 11.0159 5.59961C10.8808 5.65285 10.7351 5.67969 10.5881 5.67969L10.553 5.72266C9.63823 5.9583 8.64787 5.7625 7.9104 5.18652L7.7561 5.05664L7.69067 4.99707C7.48693 4.80931 7.2104 4.70314 6.92212 4.70312C6.63389 4.70312 6.35717 4.80861 6.15258 4.99707C5.94861 5.18464 5.83422 5.43967 5.83422 5.70508C5.83425 5.97046 5.94918 6.22514 6.15356 6.41309L6.2268 6.48047C7.04955 7.25476 7.2775 8.41231 6.82837 9.34473L6.74926 9.52148C6.2963 10.4447 5.30429 11.0559 4.16821 11.0801H4.07055C3.47064 11.0801 2.98462 11.5278 2.98462 12.0801C2.98466 12.6323 3.47066 13.0801 4.07055 13.0801H4.26001C5.40697 13.0844 6.4415 13.7152 6.88891 14.6758C7.36405 15.6669 7.13623 16.8252 6.30493 17.6074L6.2395 17.668C6.03569 17.8555 5.92114 18.1097 5.92114 18.375C5.92114 18.6404 6.03571 18.8947 6.24047 19.083C6.44423 19.2708 6.72072 19.377 7.00903 19.377C7.2972 19.3769 7.57345 19.271 7.77758 19.083L7.8518 19.0156C8.69304 18.2581 9.95018 18.0482 10.9631 18.4619L11.1555 18.5342C12.1581 18.9513 12.8216 19.8645 12.8479 20.9102V21C12.8479 21.5522 13.334 21.9999 13.9338 22C14.5338 22 15.0198 21.5523 15.0198 21V20.8262C15.0243 19.77 15.7103 18.8171 16.7541 18.4053C17.8307 17.9679 19.088 18.1781 19.9377 18.9434L20.0032 19.0029C20.2068 19.1906 20.4835 19.2968 20.7717 19.2969C21.0599 19.2969 21.3367 19.1913 21.5413 19.0029C21.7452 18.8154 21.8596 18.5603 21.8596 18.2949C21.8596 18.0296 21.7456 17.7749 21.5413 17.5869L21.467 17.5195C20.6443 16.7452 20.4167 15.5876 20.887 14.6064C21.3389 13.6357 22.374 13.0043 23.5256 13H23.6233C24.2232 13 24.7102 12.5523 24.7102 12C24.7102 11.4477 24.2232 11 23.6233 11H23.4348C22.2875 10.9958 21.252 10.3644 20.8 9.39355C20.7422 9.26917 20.7122 9.1353 20.7122 9L20.6663 8.96777C20.4102 8.12569 20.6227 7.21412 21.2483 6.53516L21.3889 6.39258L21.4543 6.33203C21.6582 6.14447 21.7727 5.89036 21.7727 5.625C21.7727 5.35959 21.6582 5.10535 21.4534 4.91699C21.2496 4.72924 20.9731 4.62305 20.6848 4.62305C20.3967 4.62313 20.1203 4.72895 19.9163 4.91699L19.842 4.98438C19.0008 5.74186 17.7438 5.95258 16.678 5.51953C15.6234 5.10345 14.9374 4.15005 14.9329 3.08984V3C14.9329 2.44772 14.4469 2 13.8469 2ZM13.8469 8C16.2465 8.00012 18.1926 9.79093 18.1926 12C18.1926 14.2091 16.2465 15.9999 13.8469 16C11.4474 15.9998 9.50219 14.209 9.50219 12C9.50219 9.79097 11.4474 8.00019 13.8469 8ZM13.8469 10C12.6472 10.0002 11.675 10.8955 11.675 12C11.675 13.1045 12.6472 13.9998 13.8469 14C15.0467 13.9999 16.0198 13.1045 16.0198 12C16.0198 10.8955 15.0467 10.0001 13.8469 10Z" fill="#3A3D44"/>
</svg>
