<svg width="23" height="20" viewBox="0 0 23 20" fill="none" xmlns="http://www.w3.org/2000/svg">
<mask id="mask0_791_5247" style="mask-type:alpha" maskUnits="userSpaceOnUse" x="0" y="0" width="23" height="20">
<path fill-rule="evenodd" clip-rule="evenodd" d="M0.984314 0.000366211H22.1656V19.4994H0.984314V0.000366211Z" fill="white"/>
</mask>
<g mask="url(#mask0_791_5247)">
<path fill-rule="evenodd" clip-rule="evenodd" d="M10.5489 11.8178L14.5214 17.7508C14.6952 18.0108 14.9667 18.0078 15.0764 17.9938C15.1862 17.9798 15.4501 17.9178 15.5457 17.6228L20.5133 2.17777C20.6002 1.90477 20.4405 1.71877 20.3688 1.65277C20.2993 1.58677 20.1005 1.44577 19.8126 1.52077L3.02314 6.04677C2.70486 6.13277 2.63534 6.37877 2.62013 6.47977C2.60493 6.58277 2.60058 6.83777 2.88193 7.00077L9.40066 10.7538L15.1601 5.39577C15.4762 5.10177 15.9922 5.09877 16.3126 5.38977C16.6331 5.68077 16.6353 6.15677 16.3191 6.45077L10.5489 11.8178ZM14.9917 19.4998C14.2357 19.4998 13.5426 19.1458 13.1342 18.5378L8.9227 12.2468L2.01834 8.27177C1.27424 7.84277 0.885354 7.07877 1.00593 6.27577C1.12542 5.47277 1.72396 4.83477 2.56473 4.60777L19.3542 0.0817716C20.1265 -0.126228 20.9543 0.0707716 21.5235 0.592772C22.0927 1.11977 22.3045 1.88977 22.0742 2.60377L17.1067 18.0478C16.8579 18.8248 16.1627 19.3738 15.2926 19.4808C15.1905 19.4928 15.0917 19.4998 14.9917 19.4998Z" fill="#3A3D44"/>
</g>
</svg>
